<?xml version="1.0" encoding="utf-8"?>
<!-- Generator: Adobe Illustrator 27.5.0, SVG Export Plug-In . SVG Version: 6.00 Build 0)  -->
<svg version="1.0" xmlns="http://www.w3.org/2000/svg" xmlns:xlink="http://www.w3.org/1999/xlink" x="0px" y="0px"
	 viewBox="0 0 339.4 67.6" style="enable-background:new 0 0 339.4 67.6;" xml:space="preserve">
<style type="text/css">
	.st0{fill:#FFFFFF;}
	.st1{fill:url(#SVGID_1_);}
</style>
<g id="Livello_1">
</g>
<g id="Livello_2">
	<g id="Livello_1_00000024695008902384386440000010783310906756331197_">
		<g>
			<path class="st0" d="M45.6,23.4c4.1,0,7.8,1,11.1,3c3.3,2,6,4.6,8,8c2,3.4,3,7.1,3,11.1v21h-8.3v-3.8c-1.9,1.5-4,2.7-6.3,3.6
				c-2.3,0.8-4.8,1.3-7.4,1.3c-4.1,0-7.8-1-11.1-3c-3.3-2-6-4.7-8-8c-2-3.3-3-7-3-11.1c0-4,1-7.7,3-11.1c2-3.4,4.7-6,8-8
				C37.8,24.4,41.5,23.4,45.6,23.4z M45.6,59.2c3.8,0,7-1.3,9.7-4c2.7-2.7,4-5.9,4-9.7c0-3.8-1.3-7-4-9.7c-2.7-2.7-5.9-4-9.7-4
				s-7,1.3-9.7,4c-2.7,2.7-4.1,5.9-4.1,9.7c0,3.8,1.4,7.1,4.1,9.7C38.5,57.9,41.8,59.2,45.6,59.2z"/>
			<path class="st0" d="M103.9,21.6c5.4,0,10,1.7,13.8,5.1c0.9,0.8,1.5,1.5,1.8,1.9l0.5,0.8c-0.1,0.1-0.9,0.6-2.4,1.5
				c-1.5,0.9-3.1,1.9-4.8,3.1c-0.5-0.6-1.1-1.2-1.6-1.6c-2-1.5-4.4-2.3-7.2-2.3h-0.2c-3.1,0-5.6,0.7-7.4,2.2c-1,0.9-1.6,1.8-1.6,2.9
				c0,0.6,0.3,1.2,0.8,1.5c0.6,0.5,1.7,1,3.3,1.6c2.2,0.7,5.7,1.5,10.5,2.3c1.5,0.4,2.8,0.8,3.9,1.2c1,0.4,2.1,1,3.1,1.7
				c0.5,0.3,1.1,0.9,2,1.8c2.2,2.4,3.2,5,3.2,8v0.1c0,3-1.1,5.8-3.4,8.5c-0.9,1-1.6,1.6-2,1.8c-1.2,0.8-2.2,1.4-2.9,1.7
				c-3,1.4-6.2,2.1-9.6,2.1h-0.3c-4.4,0-8.5-1.2-12.1-3.5c-0.8-0.5-1.7-1.2-2.6-2.1c-0.9-0.8-1.4-1.5-1.8-1.9
				c-0.6-0.7-1.1-1.5-1.6-2.3l7.4-4.3h0l0.4,0.6c0.3,0.5,0.8,1.1,1.6,1.8c1.3,1.2,3,2.1,5,2.7c1.3,0.3,2.6,0.4,3.9,0.4
				c2.6,0,4.9-0.6,7-1.7c0.4-0.2,0.9-0.6,1.4-1.1c0.8-0.9,1.2-1.8,1.2-2.7c0-1.6-1.3-2.9-3.8-3.9c-0.8-0.3-2.3-0.6-4.6-1
				c-4.8-0.9-8.3-1.9-10.6-2.9c-1-0.4-2-0.9-3-1.6c-2.2-1.4-3.7-3.3-4.4-5.5c-0.4-1-0.5-2.1-0.5-3.2v-0.3c0-2.8,1-5.4,3.1-7.9
				c0.9-0.9,1.5-1.5,1.9-1.8c1-0.7,1.9-1.3,2.8-1.8C97.1,22.3,100.4,21.6,103.9,21.6z"/>
			<path class="st0" d="M162.4,31.7h-10.1V51c0,3.2,1.8,5.4,5.3,6.6c1.1,0.4,2.5,0.6,4.2,0.6h0.7v8.5h-0.5c-7.8,0-13.3-2.9-16.6-8.8
				c-1.1-2.3-1.6-4.6-1.6-6.8V31.7h-4.3v-8h4.3V1.6h8.5v22.1h10.1V31.7z"/>
			<path class="st0" d="M203.1,23.4c4.1,0,7.8,1,11.1,3c3.3,2,6,4.6,8,8c2,3.4,3,7.1,3,11.1v21h-8.3v-3.8c-1.9,1.5-4,2.7-6.3,3.6
				c-2.3,0.8-4.8,1.3-7.4,1.3c-4.1,0-7.8-1-11.1-3c-3.3-2-6-4.7-8-8c-2-3.3-3-7-3-11.1c0-4,1-7.7,3-11.1c2-3.4,4.7-6,8-8
				C195.3,24.4,199,23.4,203.1,23.4z M203.1,59.2c3.8,0,7-1.3,9.7-4c2.7-2.7,4-5.9,4-9.7c0-3.8-1.3-7-4-9.7c-2.7-2.7-5.9-4-9.7-4
				c-3.8,0-7,1.3-9.7,4c-2.7,2.7-4.1,5.9-4.1,9.7c0,3.8,1.4,7.1,4.1,9.7C196,57.9,199.3,59.2,203.1,59.2z"/>
			<path class="st0" d="M309.3,32.9c1.1,2.3,1.6,4.6,1.6,6.8v26.8h-8.5V39.8c0-3.2-1.8-5.4-5.3-6.6c-1.1-0.4-2.5-0.6-4.2-0.6h-1.7
				c-4.6,0-7.6,1.5-8.9,4.6c-0.4,0.8-0.5,1.8-0.5,2.8v26.5h-8.5V40.8c0-3.2-1-5.3-3.1-6.5c-1.6-1.1-3.7-1.7-6.4-1.7H263
				c-0.1,0-0.3,0-0.4,0h0v-0.1h-0.7c-1.7,0-3.1,0.2-4.2,0.6c-3.5,1.2-5.3,3.4-5.3,6.6v26.7h-8.5V39.7c0-2.2,0.5-4.5,1.6-6.8
				c3.2-5.9,8.8-8.8,16.6-8.8h0.5v0.1c0.2,0,0.4,0,0.6,0h0.4c5.7,0,10.3,1.7,13.9,5.2c3.4-3.5,8-5.2,13.9-5.2h1.4
				C300.5,24.1,306,27,309.3,32.9z"/>
			<path class="st0" d="M333.6,1.6h0.4c1.3,0,2.5,0.5,3.7,1.5c1.2,1.2,1.7,2.5,1.7,3.9v0.3c0,1.3-0.5,2.6-1.5,3.7
				c-1.2,1.2-2.5,1.7-3.9,1.7h-0.3c-1.4,0-2.6-0.5-3.7-1.6c-0.6-0.6-1-1.2-1.2-1.7c-0.3-0.7-0.5-1.4-0.5-2.1V7
				c0-1.4,0.5-2.6,1.6-3.8l0.7-0.6C331.6,2,332.6,1.6,333.6,1.6z M338.1,24v42.4v0h-8.6v0V24H338.1z"/>
		</g>
		<g>
			<g>
				<linearGradient id="SVGID_1_" gradientUnits="userSpaceOnUse" x1="3" y1="19.5967" x2="34.9862" y2="19.5967">
					<stop  offset="0" style="stop-color:#FFBB88"/>
					<stop  offset="1" style="stop-color:#FF8E38"/>
				</linearGradient>
				<path class="st1" d="M0,5.2C0,13.8,0,22.4,0,31c0,1.2,0,2.4,0,3.7c0,2.4,2.1,4.6,4.5,4.5c2.4-0.1,4.5-2,4.5-4.5
					c0-8.8,0-17.6,0-26.5C9,7,9,5.7,9,4.5C7.5,6,6,7.5,4.5,9c8.9,0,17.8,0,26.7,0c1.3,0,2.5,0,3.8,0c2.4,0,4.6-2.1,4.5-4.5
					C39.4,2.1,37.5,0,35,0C26.1,0,17.2,0,8.3,0C7,0,5.8,0,4.5,0C2.1,0,0,2.1,0,4.5C0,13.3,0,22.1,0,31c0,1.2,0,2.5,0,3.7
					c0,2.4,2.1,4.6,4.5,4.5c2.4-0.1,4.5-2,4.5-4.5c0-8.6,0-17.2,0-25.8c0-1.2,0-2.4,0-3.7c0-2.4-2.1-4.6-4.5-4.5
					C2.1,0.9,0,2.7,0,5.2L0,5.2z"/>
			</g>
		</g>
	</g>
</g>
</svg>
