<?xml version="1.0" encoding="utf-8"?>
<!-- Generator: Adobe Illustrator 27.5.0, SVG Export Plug-In . SVG Version: 6.00 Build 0)  -->
<svg version="1.0" xmlns="http://www.w3.org/2000/svg" xmlns:xlink="http://www.w3.org/1999/xlink" x="0px" y="0px"
	 viewBox="0 0 67.6 67.5" style="enable-background:new 0 0 67.6 67.5;" xml:space="preserve">
<style type="text/css">
	.st0{fill:url(#SVGID_1_);}
	.st1{fill:url(#SVGID_00000031184171349408970630000014057210220211740339_);}
</style>
<g id="Livello_1">
</g>
<g id="Livello_2">
	<g id="Livello_1_00000169519441610835902660000002049645523270813879_">
		<linearGradient id="SVGID_1_" gradientUnits="userSpaceOnUse" x1="23.4542" y1="45.4546" x2="67.6193" y2="45.4546">
			<stop  offset="0" style="stop-color:#0D59A4"/>
			<stop  offset="1" style="stop-color:#153387"/>
		</linearGradient>
		<path class="st0" d="M45.6,23.4c4.1,0,7.8,1,11.1,3c3.3,2,6,4.6,8,8c2,3.4,3,7.1,3,11.1v21h-8.3v-3.8c-1.9,1.5-4,2.7-6.3,3.6
			c-2.3,0.8-4.8,1.3-7.4,1.3c-4.1,0-7.8-1-11.1-3c-3.3-2-6-4.7-8-8c-2-3.3-3-7-3-11.1c0-4,1-7.7,3-11.1c2-3.4,4.7-6,8-8
			C37.8,24.4,41.5,23.4,45.6,23.4z M45.6,59.2c3.8,0,7-1.3,9.7-4c2.7-2.7,4-5.9,4-9.7c0-3.8-1.3-7-4-9.7c-2.7-2.7-5.9-4-9.7-4
			s-7,1.3-9.7,4c-2.7,2.7-4.1,5.9-4.1,9.7c0,3.8,1.4,7.1,4.1,9.7C38.5,57.9,41.8,59.2,45.6,59.2z"/>
		<g>
			<g>
				
					<linearGradient id="SVGID_00000172397882169993074260000014574877637757325991_" gradientUnits="userSpaceOnUse" x1="3" y1="19.5967" x2="34.9862" y2="19.5967">
					<stop  offset="0" style="stop-color:#FFBB88"/>
					<stop  offset="1" style="stop-color:#FF8E38"/>
				</linearGradient>
				<path style="fill:url(#SVGID_00000172397882169993074260000014574877637757325991_);" d="M0,5.2C0,13.8,0,22.4,0,31
					c0,1.2,0,2.4,0,3.7c0,2.4,2.1,4.6,4.5,4.5c2.4-0.1,4.5-2,4.5-4.5c0-8.8,0-17.6,0-26.5C9,7,9,5.7,9,4.5C7.5,6,6,7.5,4.5,9
					c8.9,0,17.8,0,26.7,0c1.3,0,2.5,0,3.8,0c2.4,0,4.6-2.1,4.5-4.5C39.4,2.1,37.5,0,35,0C26.1,0,17.2,0,8.3,0C7,0,5.8,0,4.5,0
					C2.1,0,0,2.1,0,4.5C0,13.3,0,22.1,0,31c0,1.2,0,2.5,0,3.7c0,2.4,2.1,4.6,4.5,4.5c2.4-0.1,4.5-2,4.5-4.5c0-8.6,0-17.2,0-25.8
					c0-1.2,0-2.4,0-3.7c0-2.4-2.1-4.6-4.5-4.5C2.1,0.9,0,2.7,0,5.2L0,5.2z"/>
			</g>
		</g>
	</g>
</g>
</svg>
